<?xml version="1.0" encoding="utf-8"?>
<!-- Generator: Adobe Illustrator 16.0.0, SVG Export Plug-In . SVG Version: 6.00 Build 0)  -->
<!DOCTYPE svg PUBLIC "-//W3C//DTD SVG 1.1//EN" "http://www.w3.org/Graphics/SVG/1.1/DTD/svg11.dtd">
<svg version="1.1" id="Capa_1" xmlns="http://www.w3.org/2000/svg" xmlns:xlink="http://www.w3.org/1999/xlink" x="0px" y="0px"
	 width="50px" height="27.05px" viewBox="0 0 50 27.05" enable-background="new 0 0 50 27.05" xml:space="preserve">
<path fill-rule="evenodd" clip-rule="evenodd" fill="#FFFFFF" d="M14.279,9.023c3.153-1.362,6.409-2.25,9.815-2.86
	c-0.623-0.153-1.199-0.193-1.77-0.238c-2.079-0.166-4.154-0.183-6.21,0.244C15.961,6.201,15.868,6.218,15.869,6
	c0.004-0.921-0.388-1.706-0.9-2.437c-0.948-1.354-2.22-2.366-3.554-3.31C11.32,0.188,11.197,0.152,11.127,0
	c0.785,0.012,1.547,0.037,2.307,0.112c2.478,0.243,4.908,0.712,7.251,1.578c2.333,0.862,4.465,2.046,6.205,3.862
	c0.126,0.131,0.254,0.16,0.425,0.143c2.125-0.217,4.251-0.197,6.374-0.003c5.743,0.525,11.103,2.199,15.966,5.356
	c0.277,0.18,0.193,0.28,0.031,0.457c-1.95,2.135-4.334,3.595-7.049,4.542c-0.424,0.148-0.848,0.305-1.296,0.38
	c-0.044-0.116,0.042-0.168,0.08-0.233c0.453-0.799,0.31-1.454-0.473-1.95c-1.154-0.733-2.451-1.091-3.776-1.343
	c-2.479-0.472-4.962-0.407-7.448,0.067c0.527,0.071,1.056,0.133,1.582,0.214c1.766,0.271,3.516,0.612,5.169,1.323
	c0.565,0.242,1.098,0.541,1.551,0.962c0.189,0.177,0.346,0.381,0.462,0.612c0.339,0.671,0.194,1.21-0.439,1.611
	c-0.647,0.41-1.388,0.516-2.126,0.631c-3.179,0.488-6.346,1.022-9.399,2.068c-0.435,0.147-0.873,0.301-1.354,0.603
	c0.681,0.071,1.27,0.131,1.858,0.193c0.924,0.097,1.847,0.202,2.766,0.345c0.229,0.036,0.271,0.13,0.263,0.332
	c-0.066,1.755-0.324,3.479-0.829,5.19c-0.205-0.126-0.3-0.327-0.434-0.489c-2.185-2.646-4.776-4.837-7.596-6.767
	c-5.501-3.764-11.561-6.263-18.007-7.867c-0.983-0.244-1.973-0.461-3.023-0.704c0.981-0.216,1.917-0.346,2.854-0.458
	c2.152-0.261,4.313-0.382,6.481-0.347c3.788,0.062,7.505,0.555,11.099,1.809c0.17,0.06,0.318,0.061,0.493,0.006
	c3.58-1.111,7.245-1.748,10.988-1.933c0.596-0.029,1.191-0.055,1.881-0.086c-1.153-0.285-2.237-0.444-3.327-0.561
	c-1.902-0.201-3.809-0.227-5.716-0.083c-1.491,0.113-2.961,0.347-4.415,0.697c-0.135,0.032-0.253,0.045-0.391-0.004
	c-1.788-0.63-3.647-0.913-5.519-1.134C14.498,9.118,14.395,9.131,14.279,9.023z M41.413,9.368c-1.455-0.953-5.14-1.828-5.906-1.654
	c0.708,0.526,1.402,1.042,2.097,1.56c0.081,0.061,0.166,0.096,0.271,0.096C39.021,9.367,40.169,9.368,41.413,9.368z"/>
</svg>
